<svg width="287" height="240" viewBox="0 0 287 240" fill="none" xmlns="http://www.w3.org/2000/svg">
<path d="M15.2735 83.943V73.737H30.9875V83.943H15.2735ZM5.06752 49.68H18.5135V108H5.06752V49.68ZM16.0835 49.68H35.0375V59.886H16.0835V49.68ZM65.5093 108L55.4653 81.189H68.4253L78.4693 108H65.5093ZM54.1693 86.859V76.653H58.2193V86.859H54.1693ZM54.1693 59.886V49.68H58.2193V59.886H54.1693ZM63.7273 69.93V66.609H77.1733V69.93H63.7273ZM77.1733 66.69H63.7273C63.7273 64.53 63.2143 62.856 62.1883 61.668C61.2163 60.48 59.8663 59.886 58.1383 59.886V49.68C61.7563 49.68 64.9963 50.436 67.8583 51.948C70.7203 53.406 72.9883 55.431 74.6623 58.023C76.3363 60.561 77.1733 63.45 77.1733 66.69ZM77.1733 69.849C77.1733 73.089 76.3363 76.005 74.6623 78.597C72.9883 81.135 70.7203 83.16 67.8583 84.672C64.9963 86.13 61.7563 86.859 58.1383 86.859V76.653C59.8663 76.653 61.2163 76.059 62.1883 74.871C63.2143 73.683 63.7273 72.009 63.7273 69.849H77.1733ZM41.5333 108V49.68H54.9793V108H41.5333ZM87.3521 108V49.68H100.798V108H87.3521ZM121.507 108V97.794H142.081V108H121.507ZM121.507 83.943V73.737H137.221V83.943H121.507ZM111.301 49.68H124.747V108H111.301V49.68ZM122.317 49.68H141.271V59.886H122.317V49.68ZM175.491 108L152.406 49.68H163.746L186.831 108H175.491ZM150.219 108V49.68H163.665V108H150.219ZM178.65 108V49.68H192.096V108H178.65ZM224.797 91.152V66.609H238.243V91.152H224.797ZM213.619 108V97.794H219.208V108H213.619ZM213.619 59.886V49.68H219.208V59.886H213.619ZM213.619 59.886V49.68H219.208V59.886H213.619ZM238.243 66.69H224.797C224.797 64.53 224.284 62.856 223.258 61.668C222.286 60.48 220.936 59.886 219.208 59.886V49.68C222.826 49.68 226.066 50.436 228.928 51.948C231.79 53.406 234.058 55.431 235.732 58.023C237.406 60.561 238.243 63.45 238.243 66.69ZM238.243 90.99C238.243 94.23 237.406 97.146 235.732 99.738C234.058 102.276 231.79 104.301 228.928 105.813C226.066 107.271 222.826 108 219.208 108V97.794C220.936 97.794 222.286 97.2 223.258 96.012C224.284 94.824 224.797 93.15 224.797 90.99H238.243ZM201.793 108V49.68H215.239V108H201.793ZM270.516 93.906C270.516 92.124 269.922 90.612 268.734 89.37C267.546 88.128 266.007 86.967 264.117 85.887C262.281 84.753 260.31 83.592 258.204 82.404C256.098 81.162 254.1 79.731 252.21 78.111C250.374 76.491 248.862 74.52 247.674 72.198C246.486 69.876 245.892 67.041 245.892 63.693H259.338C259.338 65.421 259.932 66.933 261.12 68.229C262.308 69.471 263.82 70.659 265.656 71.793C267.546 72.873 269.544 74.034 271.65 75.276C273.756 76.464 275.727 77.868 277.563 79.488C279.453 81.108 280.992 83.079 282.18 85.401C283.368 87.723 283.962 90.558 283.962 93.906H270.516ZM245.892 63.774C245.892 60.804 246.729 58.185 248.403 55.917C250.077 53.595 252.345 51.759 255.207 50.409C258.069 49.059 261.309 48.384 264.927 48.384V58.59C263.199 58.59 261.822 59.049 260.796 59.967C259.824 60.885 259.338 62.154 259.338 63.774H245.892ZM283.962 93.906C283.962 96.876 283.125 99.522 281.451 101.844C279.777 104.112 277.509 105.921 274.647 107.271C271.785 108.621 268.545 109.296 264.927 109.296V99.09C266.655 99.09 268.005 98.631 268.977 97.713C270.003 96.795 270.516 95.526 270.516 93.906H283.962ZM270.111 64.989C269.841 62.937 269.247 61.371 268.329 60.291C267.465 59.157 266.331 58.59 264.927 58.59V48.384C268.005 48.384 270.705 48.951 273.027 50.085C275.403 51.219 277.347 52.866 278.859 55.026C280.371 57.186 281.37 59.805 281.856 62.883L270.111 64.989ZM257.637 89.451C257.799 92.475 258.528 94.851 259.824 96.579C261.12 98.253 262.821 99.09 264.927 99.09V109.296C259.365 109.296 254.883 107.73 251.481 104.598C248.079 101.466 246.108 97.119 245.568 91.557L257.637 89.451Z" fill="white"/>
<path d="M48.9437 165.401V155.195H69.1127V165.401H48.9437ZM55.6667 172.367V155.438H69.1127V172.367H55.6667ZM31.1237 172.367V145.313H44.5697V172.367H31.1237ZM31.1237 145.394C31.1237 142.154 31.9607 139.265 33.6347 136.727C35.3087 134.135 37.5767 132.11 40.4387 130.652C43.3007 129.14 46.5407 128.384 50.1587 128.384V138.59C48.4307 138.59 47.0537 139.184 46.0277 140.372C45.0557 141.56 44.5697 143.234 44.5697 145.394H31.1237ZM31.1237 172.286H44.5697C44.5697 174.446 45.0557 176.12 46.0277 177.308C47.0537 178.496 48.4307 179.09 50.1587 179.09V189.296C46.5407 189.296 43.3007 188.567 40.4387 187.109C37.5767 185.597 35.3087 183.572 33.6347 181.034C31.9607 178.442 31.1237 175.526 31.1237 172.286ZM57.3677 148.229C57.2057 145.205 56.4767 142.856 55.1807 141.182C53.8847 139.454 52.1837 138.59 50.0777 138.59V128.384C55.6397 128.384 60.1217 129.95 63.5237 133.082C66.9257 136.16 68.8967 140.507 69.4367 146.123L57.3677 148.229ZM69.1127 172.286C69.1127 175.526 68.2757 178.442 66.6017 181.034C64.9277 183.572 62.6597 185.597 59.7977 187.109C56.9357 188.567 53.6957 189.296 50.0777 189.296V179.09C51.8057 179.09 53.1557 178.496 54.1277 177.308C55.1537 176.12 55.6667 174.446 55.6667 172.286H69.1127ZM87.9338 178.928V168.722H108.67V178.928H87.9338ZM103 129.68L88.5008 188H75.5408L90.0398 129.68H103ZM103.162 129.68L117.661 188H104.701L90.2018 129.68H103.162ZM144.03 188L156.666 129.68H166.386L153.75 188H144.03ZM143.706 188L131.07 129.68H140.79L153.426 188H143.706ZM123.375 188V129.68H136.821V188H123.375ZM160.635 188V129.68H174.081V188H160.635ZM194.015 188V177.794H214.589V188H194.015ZM194.015 163.943V153.737H209.729V163.943H194.015ZM183.809 129.68H197.255V188H183.809V129.68ZM194.825 129.68H213.779V139.886H194.825V129.68ZM245.65 173.906C245.65 172.124 245.056 170.612 243.868 169.37C242.68 168.128 241.141 166.967 239.251 165.887C237.415 164.753 235.444 163.592 233.338 162.404C231.232 161.162 229.234 159.731 227.344 158.111C225.508 156.491 223.996 154.52 222.808 152.198C221.62 149.876 221.026 147.041 221.026 143.693H234.472C234.472 145.421 235.066 146.933 236.254 148.229C237.442 149.471 238.954 150.659 240.79 151.793C242.68 152.873 244.678 154.034 246.784 155.276C248.89 156.464 250.861 157.868 252.697 159.488C254.587 161.108 256.126 163.079 257.314 165.401C258.502 167.723 259.096 170.558 259.096 173.906H245.65ZM221.026 143.774C221.026 140.804 221.863 138.185 223.537 135.917C225.211 133.595 227.479 131.759 230.341 130.409C233.203 129.059 236.443 128.384 240.061 128.384V138.59C238.333 138.59 236.956 139.049 235.93 139.967C234.958 140.885 234.472 142.154 234.472 143.774H221.026ZM259.096 173.906C259.096 176.876 258.259 179.522 256.585 181.844C254.911 184.112 252.643 185.921 249.781 187.271C246.919 188.621 243.679 189.296 240.061 189.296V179.09C241.789 179.09 243.139 178.631 244.111 177.713C245.137 176.795 245.65 175.526 245.65 173.906H259.096ZM245.245 144.989C244.975 142.937 244.381 141.371 243.463 140.291C242.599 139.157 241.465 138.59 240.061 138.59V128.384C243.139 128.384 245.839 128.951 248.161 130.085C250.537 131.219 252.481 132.866 253.993 135.026C255.505 137.186 256.504 139.805 256.99 142.883L245.245 144.989ZM232.771 169.451C232.933 172.475 233.662 174.851 234.958 176.579C236.254 178.253 237.955 179.09 240.061 179.09V189.296C234.499 189.296 230.017 187.73 226.615 184.598C223.213 181.466 221.242 177.119 220.702 171.557L232.771 169.451Z" fill="white"/>
</svg>
